<mxfile host="app.diagrams.net" modified="2024-03-19T09:05:15.389Z" agent="Mozilla/5.0 (Windows NT 10.0; Win64; x64) AppleWebKit/537.36 (KHTML, like Gecko) Chrome/122.0.0.0 Safari/537.36" version="24.0.7" etag="9WAWUyLmHAU-Dw8g7nhV" type="github">
  <diagram name="Page-1" id="-30sCfPsmppc0BMjghwY">
    <mxGraphModel>
      <root>
        <mxCell id="0" />
        <mxCell id="1" parent="0" />
      </root>
    </mxGraphModel>
  </diagram>
</mxfile>
